# xmcd
#
# Track frame offsets:
#	150
#	12616
#	25041
#	37968
#	50970
#	68461
#	83316
#	131808
#	147975
#	163842
#	179976
#	196809
#	207421
#	219413
#	236557
#	250976
#
# Disc length: 3598 seconds
#
# Revision: 2
# Processed by: cddbd v1.5.2PL0 Copyright (c) Steve Scherf et al.
# Submitted via: audiograbber 1.83.01
#
DISCID=e90e0c10
DTITLE=Various Artist - Motown Funk CD 1
DYEAR=2013
DGENRE=Motown
TTITLE0=Gordon Staples - Strung Out
TTITLE1=Martha Reeves and The Vandellas - Easily Persuaded
TTITLE2=Jimmy and David Ruffin - When My Love Hand Comes Down
TTITLE3=Stevie Wonder - Every Time I See You I Go Wild
TTITLE4=The Temptations - Psychedelic Shack
TTITLE5=The Undisputed Truth - Smiling Faces Sometimes
TTITLE6=The Undisputed Truth - Ball Of Confusion
TTITLE7=Jimmy and David Ruffin - Lo And Behold
TTITLE8=Barbara McNair - The Hunter Gets Captured By The Game
TTITLE9=Diana Ross and The Supremes and The Temptations - Sing A Simple Song
TTITLE10=Gladys Knight and The Pips - Feeling Alright
TTITLE11=Barbara Randolph - Can I Get A Witness
TTITLE12=Shorty Long - Here Comes The Judge
TTITLE13=The Temptations - I Ain't Got Nothin'
TTITLE14=Edwin Starr - Easin' In
TTITLE15=Gladys Knight and The Pips - Who Is She (And What Is She To You)
EXTD=
EXTT0=
EXTT1=
EXTT2=
EXTT3=
EXTT4=
EXTT5=
EXTT6=
EXTT7=
EXTT8=
EXTT9=
EXTT10=
EXTT11=
EXTT12=
EXTT13=
EXTT14=
EXTT15=
PLAYORDER=
